<svg xmlns="http://www.w3.org/2000/svg" version="1.1" xmlns:xlink="http://www.w3.org/1999/xlink" xmlns:svgjs="http://svgjs.com/svgjs" width="1440" height="560" preserveAspectRatio="none" viewBox="0 0 1440 560"><g mask="url(&quot;#SvgjsMask1004&quot;)" fill="none"><rect width="1440" height="560" x="0" y="0" fill="rgba(41, 41, 41, 1)"></rect><path d="M 0,89 C 57.6,120.6 172.8,242.6 288,247 C 403.2,251.4 460.8,105.6 576,111 C 691.2,116.4 748.8,283 864,274 C 979.2,265 1036.8,65.4 1152,66 C 1267.2,66.6 1382.4,234.8 1440,277L1440 560L0 560z" fill="rgba(34, 34, 34, 1)"></path><path d="M 0,413 C 96,422.6 288,482.8 480,461 C 672,439.2 768,297.2 960,304 C 1152,310.8 1344,456.8 1440,495L1440 560L0 560z" fill="rgba(24, 24, 24, 1)"></path></g><defs><mask id="SvgjsMask1004"><rect width="1440" height="560" fill="#ffffff"></rect></mask></defs></svg>